<?xml version="1.0" encoding="UTF-8"?>
<svg version="1.1" xmlns="http://www.w3.org/2000/svg" width="437" height="484">
<path d="M0 0 C1.25296875 0.09667969 1.25296875 0.09667969 2.53125 0.1953125 C10.99152402 2.13226997 18.58385092 7.01388327 26.0625 11.25 C27.15312744 11.86431885 28.24375488 12.4786377 29.36743164 13.11157227 C38.76716359 18.42299278 48.09597516 23.85288111 57.41015625 29.3125 C63.71570465 33.00713337 70.04297534 36.6634724 76.375 40.3125 C77.45370361 40.93431152 78.53240723 41.55612305 79.64379883 42.19677734 C82.92892251 44.08999899 86.21439728 45.98260983 89.5 47.875 C102.14302999 55.15693508 114.78132332 62.44546042 127.375 69.8125 C136.05263277 74.88775729 144.76644896 79.89688637 153.5 84.875 C162.58000319 90.05318145 171.64896433 95.24963262 180.6875 100.5 C181.64849609 101.05558594 182.60949219 101.61117187 183.59960938 102.18359375 C201.4603447 112.58864296 201.4603447 112.58864296 204.5 117.875 C205.22250866 121.72837953 204.91385327 123.25029913 202.74521065 126.52380943 C198.4834545 130.52144063 192.48489542 129.55186491 187.01412964 129.49404907 C185.73129974 129.50028805 184.44846985 129.50652703 183.12676632 129.51295507 C179.5675588 129.52964571 176.00904861 129.51527016 172.44987965 129.49589396 C168.61056452 129.48046582 164.77133978 129.49391457 160.93202209 129.50398254 C154.27822726 129.51760351 147.62463827 129.51328911 140.9708519 129.49715042 C131.33863519 129.47407745 121.7066246 129.4813942 112.07440104 129.49668162 C96.43109354 129.52096178 80.78785196 129.52515649 65.14453125 129.51464844 C64.20820052 129.51402461 63.27186979 129.51340079 62.3071654 129.51275806 C60.41224103 129.5114868 58.51731667 129.51021256 56.6223923 129.50893535 C55.68302274 129.50830297 54.74365318 129.50767059 53.77581787 129.50701904 C52.83569066 129.5063809 51.89556344 129.50574275 50.92694753 129.50508527 C40.49719715 129.49828631 30.06744772 129.49628841 19.63769531 129.49609375 C18.23763948 129.4960595 18.23763948 129.4960595 16.80929969 129.49602456 C1.23185499 129.49609387 -14.34556471 129.50814178 -29.92299736 129.52705324 C-39.52696087 129.53800291 -49.13079314 129.53720912 -58.7347502 129.5211135 C-65.32069486 129.51062573 -71.90658683 129.51043271 -78.49253507 129.51823165 C-82.28934494 129.52230852 -86.08598692 129.52143685 -89.88277626 129.50729942 C-94.00604115 129.49201384 -98.12894668 129.49996572 -102.25222778 129.50991821 C-103.44242464 129.50166004 -104.6326215 129.49340186 -105.85888493 129.48489344 C-118.18492419 129.55527718 -129.23269534 132.27595324 -138.5390625 140.7265625 C-146.6942494 149.43699616 -148.83939425 158.70393278 -148.70703125 170.33984375 C-148.18465106 179.25973188 -144.36800358 186.20113906 -138.5 192.875 C-129.86360441 200.25547451 -119.99823315 202.99648547 -108.76708984 203.00097656 C-108.1222464 203.0028447 -107.47740295 203.00471283 -106.8130188 203.00663757 C-105.42170991 203.01061942 -104.03039458 203.01271436 -102.63908005 203.01309967 C-99.66258906 203.0165506 -96.68630965 203.0379611 -93.70989418 203.05833054 C-88.18270638 203.09613101 -82.65575025 203.12762525 -77.12841797 203.12548828 C-73.26970546 203.12469461 -69.4117789 203.14833771 -65.55327225 203.1873703 C-64.09511487 203.19773086 -62.63686566 203.19942882 -61.17869186 203.19171906 C-50.11040457 203.13905561 -40.01468776 204.49035018 -31.5 212.1875 C-25.05941433 219.36639671 -22.32037843 228.15296965 -22.76196289 237.73175049 C-23.33995231 243.75117163 -25.80015655 248.54490363 -28.515625 253.87792969 C-29.31268105 255.48931383 -29.31268105 255.48931383 -30.12583923 257.13325119 C-31.28940788 259.48078851 -32.45814238 261.82481482 -33.63632202 264.16496277 C-35.54173578 267.95136029 -37.42136388 271.75022712 -39.2980957 275.55090332 C-43.15340806 283.34996786 -47.03505526 291.13576679 -50.92196655 298.91912174 C-52.0775535 301.23327075 -53.23268576 303.5476462 -54.38769531 305.86208344 C-58.01769954 313.1356478 -61.64923098 320.40844641 -65.28309441 327.68008351 C-69.45189111 336.02219201 -73.61537879 344.36692282 -77.77448559 352.71386647 C-81.01553894 359.21757451 -84.26118887 365.71897514 -87.51035023 372.21863627 C-89.44144739 376.08187552 -91.37061136 379.94605057 -93.29495239 383.81266022 C-95.09556663 387.43035233 -96.90187235 391.04514458 -98.71258736 394.65779114 C-99.3741689 395.98018419 -100.03370841 397.30360118 -100.69102287 398.62812042 C-101.58987522 400.43855304 -102.4968994 402.24492154 -103.40429688 404.05108643 C-103.90860229 405.06116383 -104.41290771 406.07124123 -104.93249512 407.11192703 C-107.9265176 412.3895518 -110.70062378 415.79597834 -116.5 417.875 C-124.53315342 419.44397528 -129.80408036 415.90225601 -136.5 411.875 C-138.48362163 410.766628 -140.4773235 409.6777528 -142.47143555 408.58837891 C-152.50015295 403.09727772 -162.36788765 397.33208801 -172.2265625 391.54296875 C-176.49688071 389.03729477 -180.78411941 386.56446509 -185.0859375 384.11328125 C-186.69734619 383.18950684 -186.69734619 383.18950684 -188.34130859 382.24707031 C-190.38446639 381.07657367 -192.43143821 379.91269884 -194.48291016 378.75683594 C-201.94408456 374.46424656 -209.7644718 369.88033288 -213.4375 361.75 C-214.00791016 360.53957031 -214.00791016 360.53957031 -214.58984375 359.3046875 C-216.61942398 353.88666647 -216.64843335 348.70569782 -216.64717102 342.99569702 C-216.65084771 342.1008046 -216.6545244 341.20591218 -216.6583125 340.28390181 C-216.66932679 337.28480241 -216.67318936 334.28573768 -216.67700195 331.28662109 C-216.68326831 329.13627005 -216.68991526 326.98592008 -216.69691467 324.83557129 C-216.71793714 317.773201 -216.72831544 310.71083055 -216.73828125 303.6484375 C-216.7423295 301.21525689 -216.74644644 298.7820764 -216.75063133 296.34889603 C-216.76967909 284.91678939 -216.78391095 273.4846892 -216.7922433 262.05256975 C-216.80201423 248.86517589 -216.8283319 235.67794995 -216.86874419 222.49061525 C-216.89892384 212.29169937 -216.91371395 202.09283157 -216.91702431 191.8938719 C-216.91937268 185.80527456 -216.92830571 179.7168567 -216.95348549 173.62830734 C-216.97680335 167.89746261 -216.98098433 162.16691507 -216.97072411 156.43603516 C-216.97022954 154.33786657 -216.97652639 152.23968317 -216.99028015 150.1415596 C-217.11624318 129.77944868 -217.11624318 129.77944868 -212.5 120.875 C-212.01255546 119.8935605 -212.01255546 119.8935605 -211.51526356 118.89229393 C-204.6937403 106.30844036 -183.11035186 98.86527042 -170.99882507 91.99945068 C-164.77311559 88.46788845 -158.57210618 84.89399348 -152.375 81.3125 C-151.31120117 80.69810059 -150.24740234 80.08370117 -149.15136719 79.45068359 C-147.00672653 78.21194071 -144.86219494 76.97300896 -142.71777344 75.73388672 C-137.31329355 72.61175395 -131.90652588 69.49358796 -126.5 66.375 C-124.3333225 65.12501878 -122.16665583 63.87501879 -120 62.625 C-107 55.125 -107 55.125 -103.74951172 53.24975586 C-101.58442929 52.00064482 -99.41939018 50.75145871 -97.25439453 49.50219727 C-91.81384294 46.36297691 -86.37252784 43.22509437 -80.9296875 40.08984375 C-71.37556642 34.58465727 -61.82528346 29.07414472 -52.30932617 23.50317383 C-48.37232066 21.19998551 -44.42991471 18.90615594 -40.48632812 16.61425781 C-38.44376945 15.42465775 -36.40350674 14.2311091 -34.36523438 13.03417969 C-31.27094447 11.2194618 -28.16781701 9.42076735 -25.0625 7.625 C-23.66898315 6.80104736 -23.66898315 6.80104736 -22.24731445 5.96044922 C-15.1241159 1.87244291 -8.34139458 -0.7980964 0 0 Z " fill="#322B2A" transform="translate(216.5,0.125)"/>
<path d="M0 0 C0.70339508 -0.0049649 1.40679016 -0.00992981 2.13150024 -0.01504517 C4.43460093 -0.02952919 6.73763294 -0.03644301 9.04077148 -0.04199219 C9.83224012 -0.04481956 10.62370876 -0.04764694 11.4391613 -0.05056 C15.62171634 -0.06549114 19.80423738 -0.07476088 23.98681641 -0.07910156 C28.2964177 -0.08459954 32.60570521 -0.10867261 36.91520786 -0.13707352 C40.24127614 -0.15572178 43.5672688 -0.1609065 46.89338493 -0.16243744 C48.48215399 -0.16545591 50.07092198 -0.17345717 51.65963936 -0.18662262 C53.88271066 -0.20374126 56.10501393 -0.20178997 58.328125 -0.1953125 C59.59052505 -0.19895813 60.85292511 -0.20260376 62.15357971 -0.20635986 C67.25270429 0.33746125 70.48582258 1.92720717 73.91186523 5.72363281 C76.44329963 9.38014917 76.72808319 11.261477 76.74653625 15.68725586 C76.75726921 17.44929604 76.75726921 17.44929604 76.76821899 19.24693298 C76.7709079 20.54248611 76.7735968 21.83803925 76.77636719 23.17285156 C76.78263139 24.54606804 76.78927815 25.91928281 76.79627991 27.29249573 C76.8173398 31.81119604 76.82768869 36.32989675 76.83764648 40.84863281 C76.84169426 42.40547707 76.84581119 43.96232115 76.84999657 45.51916504 C76.86905778 52.83836987 76.88328305 60.15756459 76.89160854 67.47678947 C76.90136456 75.91394379 76.92763715 84.35083461 76.96810943 92.78789616 C76.99833769 99.31458025 77.01308402 105.84118915 77.01638955 112.36794186 C77.01873375 116.2628593 77.02761037 120.15749558 77.05285072 124.05233765 C77.07625226 127.72304096 77.08031677 131.39328046 77.07008934 135.06403923 C77.06936331 137.03976814 77.08837257 139.01547412 77.1081543 140.99110413 C77.05748791 149.72699594 75.49969122 156.36443984 70.97436523 163.84863281 C64.34216684 170.30629967 56.21645251 174.58437485 48.15893555 178.98950195 C41.78184458 182.47991014 35.49416046 186.10684252 29.22436523 189.78613281 C20.38214136 194.96957899 11.50522733 200.08815793 2.59936523 205.16113281 C-6.09482218 210.11461486 -14.76566596 215.10482755 -23.40063477 220.16113281 C-32.62864006 225.56469741 -41.90058147 230.88765642 -51.19165039 236.18164062 C-59.28808104 240.79616367 -67.35841201 245.45257148 -75.40063477 250.16113281 C-83.68977974 255.0088149 -91.99260923 259.83184186 -100.3215332 264.61083984 C-102.08614478 265.62410186 -103.84889495 266.64060342 -105.61157227 267.65722656 C-127.63346781 280.26695364 -127.63346781 280.26695364 -135.90063477 280.47363281 C-136.85969727 280.51101563 -137.81875977 280.54839844 -138.80688477 280.58691406 C-149.18098741 279.35780842 -158.00296087 273.82514469 -166.83813477 268.59863281 C-168.0063111 267.91883374 -169.1749292 267.23979322 -170.34399414 266.56152344 C-179.50035084 261.21012983 -179.50035084 261.21012983 -183.40063477 258.16113281 C-182.00077428 253.61651647 -180.17393032 249.42552644 -178.03845215 245.18952942 C-177.70078056 244.51177182 -177.36310897 243.83401423 -177.01520491 243.13571852 C-175.8877054 240.87510409 -174.75453214 238.61738362 -173.62133789 236.35961914 C-172.80935473 234.73457927 -171.99771809 233.10936622 -171.18640137 231.48399353 C-168.98296921 227.07228424 -166.77454621 222.66309063 -164.56511879 218.25438142 C-162.24491716 213.62278554 -159.92895271 208.98907165 -157.61242676 204.3556366 C-153.71447784 196.56067555 -149.81343532 188.76726908 -145.91040039 180.97485352 C-141.42064044 172.01098427 -136.93500419 163.04506174 -132.45179796 154.07791311 C-127.65774927 144.4891352 -122.86063863 134.90189151 -118.06265831 125.3150804 C-116.69244567 122.57676958 -115.32278925 119.83818119 -113.95326233 117.09952736 C-111.78167009 112.75736223 -109.60799906 108.41624343 -107.43284607 104.07586098 C-106.64299355 102.49902978 -105.85377536 100.92188062 -105.06530762 99.34435654 C-100.41884019 90.04926971 -95.67671583 80.81192667 -90.80938005 71.63029271 C-88.46864128 67.21245802 -86.1844928 62.77500103 -83.96704102 58.29394531 C-78.18052311 46.66287585 -72.54155886 36.46555311 -63.40063477 27.16113281 C-62.82442383 26.49855469 -62.24821289 25.83597656 -61.65454102 25.15332031 C-46.90942715 8.75351785 -21.49395748 0.11618216 0 0 Z " fill="#E52028" transform="translate(350.400634765625,203.8388671875)"/>
</svg>
